<svg width="24" height="24" viewBox="0 0 24 24" fill="none" xmlns="http://www.w3.org/2000/svg">
<path fill-rule="evenodd" clip-rule="evenodd" d="M11.5 2.99984H12L12.3221 3.01983C17.0213 3.41073 20.7372 7.21051 21.0001 12L21.0001 12.4975C21.0038 13.9749 20.6586 15.4322 19.9945 16.747C18.3862 19.9651 15.098 21.9986 11.5026 22C10.2715 22.0032 9.0542 21.764 7.91951 21.2987L7.65 21.182L6.07545 21.7557C4.57418 22.3022 2.91973 21.5755 2.29523 20.1269L2.23014 19.963C1.98569 19.2916 1.98891 18.555 2.23923 17.8857L2.815 16.344L2.70123 16.0805C2.28249 15.0593 2.04689 13.9715 2.00629 12.8679L2 12.4996C2.00139 8.90199 4.03487 5.61382 7.24915 4.00738C8.56776 3.34135 10.0251 2.99615 11.5 2.99984ZM11.9567 4.99898L11.4975 4.99984C10.335 4.99693 9.18834 5.26854 8.14706 5.79449C5.60648 7.06423 4.0011 9.66016 4 12.5026C3.99697 13.665 4.26854 14.8116 4.7926 15.8491C4.91847 16.0983 4.93444 16.3888 4.83663 16.6503L4.11249 18.5864C4.02905 18.8094 4.02797 19.055 4.10946 19.2788C4.2984 19.7978 4.87227 20.0653 5.39123 19.8763L7.35789 19.1603C7.61737 19.0658 7.90437 19.0829 8.15085 19.2074C9.18838 19.7314 10.335 20.003 11.4996 20C14.3398 19.9989 16.9358 18.3935 18.2074 15.8491C18.7314 14.8116 19.003 13.665 19.0001 12.5L19.0017 12.0551C18.7917 8.25214 15.7581 5.21475 11.9567 4.99898ZM11.9567 4.99898L11.958 4.99898L11.9449 4.99832L11.9567 4.99898ZM7 11C7 10.4477 7.44772 9.99998 8 9.99998H15C15.5523 9.99998 16 10.4477 16 11C16 11.5523 15.5523 12 15 12H8C7.44772 12 7 11.5523 7 11ZM10 14C9.44772 14 9 14.4477 9 15C9 15.5523 9.44772 16 10 16H13C13.5523 16 14 15.5523 14 15C14 14.4477 13.5523 14 13 14H10Z" fill="#0A1629"/>
</svg>
